<svg width="168" height="30" viewBox="0 0 168 30" fill="none" xmlns="http://www.w3.org/2000/svg">
<path d="M0.0465971 18.92C0.0465971 16.856 0.430597 15.044 1.1986 13.484C1.9906 11.924 3.0586 10.724 4.4026 9.884C5.7466 9.044 7.2466 8.624 8.9026 8.624C10.2226 8.624 11.4226 8.9 12.5026 9.452C13.6066 10.004 14.4706 10.748 15.0946 11.684V2.36H21.2506V29H15.0946V26.12C14.5186 27.08 13.6906 27.848 12.6106 28.424C11.5546 29 10.3186 29.288 8.9026 29.288C7.2466 29.288 5.7466 28.868 4.4026 28.028C3.0586 27.164 1.9906 25.952 1.1986 24.392C0.430597 22.808 0.0465971 20.984 0.0465971 18.92ZM15.0946 18.956C15.0946 17.42 14.6626 16.208 13.7986 15.32C12.9586 14.432 11.9266 13.988 10.7026 13.988C9.4786 13.988 8.4346 14.432 7.5706 15.32C6.7306 16.184 6.3106 17.384 6.3106 18.92C6.3106 20.456 6.7306 21.68 7.5706 22.592C8.4346 23.48 9.4786 23.924 10.7026 23.924C11.9266 23.924 12.9586 23.48 13.7986 22.592C14.6626 21.704 15.0946 20.492 15.0946 18.956ZM27.1802 6.824C26.1002 6.824 25.2122 6.512 24.5162 5.888C23.8442 5.24 23.5082 4.448 23.5082 3.512C23.5082 2.552 23.8442 1.76 24.5162 1.136C25.2122 0.487998 26.1002 0.163998 27.1802 0.163998C28.2362 0.163998 29.1002 0.487998 29.7722 1.136C30.4682 1.76 30.8162 2.552 30.8162 3.512C30.8162 4.448 30.4682 5.24 29.7722 5.888C29.1002 6.512 28.2362 6.824 27.1802 6.824ZM30.2402 8.912V29H24.0842V8.912H30.2402ZM41.2534 29.288C39.5014 29.288 37.9414 28.988 36.5734 28.388C35.2054 27.788 34.1254 26.972 33.3334 25.94C32.5414 24.884 32.0974 23.708 32.0014 22.412H38.0854C38.1574 23.108 38.4814 23.672 39.0574 24.104C39.6334 24.536 40.3414 24.752 41.1814 24.752C41.9494 24.752 42.5374 24.608 42.9454 24.32C43.3774 24.008 43.5934 23.612 43.5934 23.132C43.5934 22.556 43.2934 22.136 42.6934 21.872C42.0934 21.584 41.1214 21.272 39.7774 20.936C38.3374 20.6 37.1374 20.252 36.1774 19.892C35.2174 19.508 34.3894 18.92 33.6934 18.128C32.9974 17.312 32.6494 16.22 32.6494 14.852C32.6494 13.7 32.9614 12.656 33.5854 11.72C34.2334 10.76 35.1694 10.004 36.3934 9.452C37.6414 8.9 39.1174 8.624 40.8214 8.624C43.3414 8.624 45.3214 9.248 46.7614 10.496C48.2254 11.744 49.0654 13.4 49.2814 15.464H43.5934C43.4974 14.768 43.1854 14.216 42.6574 13.808C42.1534 13.4 41.4814 13.196 40.6414 13.196C39.9214 13.196 39.3694 13.34 38.9854 13.628C38.6014 13.892 38.4094 14.264 38.4094 14.744C38.4094 15.32 38.7094 15.752 39.3094 16.04C39.9334 16.328 40.8934 16.616 42.1894 16.904C43.6774 17.288 44.8894 17.672 45.8254 18.056C46.7614 18.416 47.5774 19.016 48.2734 19.856C48.9934 20.672 49.3654 21.776 49.3894 23.168C49.3894 24.344 49.0534 25.4 48.3814 26.336C47.7334 27.248 46.7854 27.968 45.5374 28.496C44.3134 29.024 42.8854 29.288 41.2534 29.288ZM50.3116 18.956C50.3116 16.868 50.7316 15.044 51.5716 13.484C52.4356 11.924 53.6236 10.724 55.1356 9.884C56.6716 9.044 58.4236 8.624 60.3916 8.624C62.9116 8.624 65.0116 9.284 66.6916 10.604C68.3956 11.924 69.5116 13.784 70.0396 16.184H63.4876C62.9356 14.648 61.8676 13.88 60.2836 13.88C59.1556 13.88 58.2556 14.324 57.5836 15.212C56.9116 16.076 56.5756 17.324 56.5756 18.956C56.5756 20.588 56.9116 21.848 57.5836 22.736C58.2556 23.6 59.1556 24.032 60.2836 24.032C61.8676 24.032 62.9356 23.264 63.4876 21.728H70.0396C69.5116 24.08 68.3956 25.928 66.6916 27.272C64.9876 28.616 62.8876 29.288 60.3916 29.288C58.4236 29.288 56.6716 28.868 55.1356 28.028C53.6236 27.188 52.4356 25.988 51.5716 24.428C50.7316 22.868 50.3116 21.044 50.3116 18.956ZM80.8565 29.288C78.8885 29.288 77.1125 28.868 75.5285 28.028C73.9685 27.188 72.7325 25.988 71.8205 24.428C70.9325 22.868 70.4885 21.044 70.4885 18.956C70.4885 16.892 70.9445 15.08 71.8565 13.52C72.7685 11.936 74.0165 10.724 75.6005 9.884C77.1845 9.044 78.9605 8.624 80.9285 8.624C82.8965 8.624 84.6725 9.044 86.2565 9.884C87.8405 10.724 89.0885 11.936 90.0005 13.52C90.9125 15.08 91.3685 16.892 91.3685 18.956C91.3685 21.02 90.9005 22.844 89.9645 24.428C89.0525 25.988 87.7925 27.188 86.1845 28.028C84.6005 28.868 82.8245 29.288 80.8565 29.288ZM80.8565 23.96C82.0325 23.96 83.0285 23.528 83.8445 22.664C84.6845 21.8 85.1045 20.564 85.1045 18.956C85.1045 17.348 84.6965 16.112 83.8805 15.248C83.0885 14.384 82.1045 13.952 80.9285 13.952C79.7285 13.952 78.7325 14.384 77.9405 15.248C77.1485 16.088 76.7525 17.324 76.7525 18.956C76.7525 20.564 77.1365 21.8 77.9045 22.664C78.6965 23.528 79.6805 23.96 80.8565 23.96ZM102.05 23.24L106.406 8.912H112.958L105.83 29H98.2343L91.1063 8.912H97.6943L102.05 23.24ZM132.866 18.632C132.866 19.208 132.83 19.808 132.758 20.432H118.826C118.922 21.68 119.318 22.64 120.014 23.312C120.734 23.96 121.61 24.284 122.642 24.284C124.178 24.284 125.246 23.636 125.846 22.34H132.398C132.062 23.66 131.45 24.848 130.562 25.904C129.698 26.96 128.606 27.788 127.286 28.388C125.966 28.988 124.49 29.288 122.858 29.288C120.89 29.288 119.138 28.868 117.602 28.028C116.066 27.188 114.866 25.988 114.002 24.428C113.138 22.868 112.706 21.044 112.706 18.956C112.706 16.868 113.126 15.044 113.966 13.484C114.83 11.924 116.03 10.724 117.566 9.884C119.102 9.044 120.866 8.624 122.858 8.624C124.802 8.624 126.53 9.032 128.042 9.848C129.554 10.664 130.73 11.828 131.57 13.34C132.434 14.852 132.866 16.616 132.866 18.632ZM126.566 17.012C126.566 15.956 126.206 15.116 125.486 14.492C124.766 13.868 123.866 13.556 122.786 13.556C121.754 13.556 120.878 13.856 120.158 14.456C119.462 15.056 119.03 15.908 118.862 17.012H126.566ZM140.649 12.26C141.369 11.156 142.269 10.292 143.349 9.668C144.429 9.02 145.629 8.696 146.949 8.696V15.212H145.257C143.721 15.212 142.569 15.548 141.801 16.22C141.033 16.868 140.649 18.02 140.649 19.676V29H134.493V8.912H140.649V12.26ZM157.416 29.288C155.448 29.288 153.672 28.868 152.088 28.028C150.528 27.188 149.292 25.988 148.38 24.428C147.492 22.868 147.048 21.044 147.048 18.956C147.048 16.892 147.504 15.08 148.416 13.52C149.328 11.936 150.576 10.724 152.16 9.884C153.744 9.044 155.52 8.624 157.488 8.624C159.456 8.624 161.232 9.044 162.816 9.884C164.4 10.724 165.648 11.936 166.56 13.52C167.472 15.08 167.928 16.892 167.928 18.956C167.928 21.02 167.46 22.844 166.524 24.428C165.612 25.988 164.352 27.188 162.744 28.028C161.16 28.868 159.384 29.288 157.416 29.288ZM157.416 23.96C158.592 23.96 159.588 23.528 160.404 22.664C161.244 21.8 161.664 20.564 161.664 18.956C161.664 17.348 161.256 16.112 160.44 15.248C159.648 14.384 158.664 13.952 157.488 13.952C156.288 13.952 155.292 14.384 154.5 15.248C153.708 16.088 153.312 17.324 153.312 18.956C153.312 20.564 153.696 21.8 154.464 22.664C155.256 23.528 156.24 23.96 157.416 23.96Z" fill="black"/>
</svg>
