<svg version="1" xmlns="http://www.w3.org/2000/svg" width="346.667" height="346.667" viewBox="0 0 260.000000 260.000000"><path d="M115 43.6c-26.8 5.7-49 23.6-60.5 48.7-4.6 10.2-6.6 18.6-7.2 31.3-1.9 37.9 21.7 72.7 57.9 85 23 7.8 50.3 5 70.6-7.4 19.6-11.8 33.2-29.5 39.4-50.9 3.3-11.3 3.3-34.3 0-45.6-9.1-31.6-34.6-55.2-66-61.3-9.2-1.8-25.6-1.7-34.2.2zm34.1 42.3c11.1 4.4 20.7 14 25.1 25.1 1.8 4.5 2.2 7.5 2.3 16.5 0 10.6-.1 11.2-3.7 18.7-13.7 28.6-50.6 34.6-72.5 11.8-15.6-16.2-16.3-41.6-1.7-59.6 4.3-5.3 13.1-11.2 20.3-13.6 7.8-2.5 22.4-2 30.2 1.1z"/></svg>