<svg width="168" height="30" viewBox="0 0 168 30" fill="none" xmlns="http://www.w3.org/2000/svg">
<path d="M0.0466003 18.9201C0.0466003 16.8561 0.4306 15.0441 1.1986 13.4841C1.9906 11.9241 3.0586 10.7241 4.4026 9.88406C5.7466 9.04406 7.2466 8.62406 8.9026 8.62406C10.2226 8.62406 11.4226 8.90006 12.5026 9.45206C13.6066 10.0041 14.4706 10.7481 15.0946 11.6841V2.36006H21.2506V29.0001H15.0946V26.1201C14.5186 27.0801 13.6906 27.8481 12.6106 28.4241C11.5546 29.0001 10.3186 29.2881 8.9026 29.2881C7.2466 29.2881 5.7466 28.8681 4.4026 28.0281C3.0586 27.1641 1.9906 25.9521 1.1986 24.3921C0.4306 22.8081 0.0466003 20.9841 0.0466003 18.9201ZM15.0946 18.9561C15.0946 17.4201 14.6626 16.2081 13.7986 15.3201C12.9586 14.4321 11.9266 13.9881 10.7026 13.9881C9.4786 13.9881 8.4346 14.4321 7.5706 15.3201C6.7306 16.1841 6.3106 17.3841 6.3106 18.9201C6.3106 20.4561 6.7306 21.6801 7.5706 22.5921C8.4346 23.4801 9.4786 23.9241 10.7026 23.9241C11.9266 23.9241 12.9586 23.4801 13.7986 22.5921C14.6626 21.7041 15.0946 20.4921 15.0946 18.9561Z" fill="white"/>
<path d="M27.1802 6.82406C26.1002 6.82406 25.2122 6.51206 24.5162 5.88806C23.8442 5.24006 23.5082 4.44806 23.5082 3.51206C23.5082 2.55206 23.8442 1.76006 24.5162 1.13606C25.2122 0.488063 26.1002 0.164062 27.1802 0.164062C28.2362 0.164062 29.1002 0.488063 29.7722 1.13606C30.4682 1.76006 30.8162 2.55206 30.8162 3.51206C30.8162 4.44806 30.4682 5.24006 29.7722 5.88806C29.1002 6.51206 28.2362 6.82406 27.1802 6.82406ZM30.2402 8.91206V29.0001H24.0842V8.91206H30.2402Z" fill="white"/>
<path d="M41.2534 29.2881C39.5014 29.2881 37.9414 28.9881 36.5734 28.3881C35.2054 27.7881 34.1254 26.9721 33.3334 25.9401C32.5414 24.8841 32.0974 23.7081 32.0014 22.4121H38.0854C38.1574 23.1081 38.4814 23.6721 39.0574 24.1041C39.6334 24.5361 40.3414 24.7521 41.1814 24.7521C41.9494 24.7521 42.5374 24.6081 42.9454 24.3201C43.3774 24.0081 43.5934 23.6121 43.5934 23.1321C43.5934 22.5561 43.2934 22.1361 42.6934 21.8721C42.0934 21.5841 41.1214 21.2721 39.7774 20.9361C38.3374 20.6001 37.1374 20.2521 36.1774 19.8921C35.2174 19.5081 34.3894 18.9201 33.6934 18.1281C32.9974 17.3121 32.6494 16.2201 32.6494 14.8521C32.6494 13.7001 32.9614 12.6561 33.5854 11.7201C34.2334 10.7601 35.1694 10.0041 36.3934 9.45206C37.6414 8.90006 39.1174 8.62406 40.8214 8.62406C43.3414 8.62406 45.3214 9.24806 46.7614 10.4961C48.2254 11.7441 49.0654 13.4001 49.2814 15.4641H43.5934C43.4974 14.7681 43.1854 14.2161 42.6574 13.8081C42.1534 13.4001 41.4814 13.1961 40.6414 13.1961C39.9214 13.1961 39.3694 13.3401 38.9854 13.6281C38.6014 13.8921 38.4094 14.2641 38.4094 14.7441C38.4094 15.3201 38.7094 15.7521 39.3094 16.0401C39.9334 16.3281 40.8934 16.6161 42.1894 16.9041C43.6774 17.2881 44.8894 17.6721 45.8254 18.0561C46.7614 18.4161 47.5774 19.0161 48.2734 19.8561C48.9934 20.6721 49.3654 21.7761 49.3894 23.1681C49.3894 24.3441 49.0534 25.4001 48.3814 26.3361C47.7334 27.2481 46.7854 27.9681 45.5374 28.4961C44.3134 29.0241 42.8854 29.2881 41.2534 29.2881Z" fill="white"/>
<path d="M50.3116 18.9561C50.3116 16.8681 50.7316 15.0441 51.5716 13.4841C52.4356 11.9241 53.6236 10.7241 55.1356 9.88406C56.6716 9.04406 58.4236 8.62406 60.3916 8.62406C62.9116 8.62406 65.0116 9.28406 66.6916 10.6041C68.3956 11.9241 69.5116 13.7841 70.0396 16.1841H63.4876C62.9356 14.6481 61.8676 13.8801 60.2836 13.8801C59.1556 13.8801 58.2556 14.3241 57.5836 15.2121C56.9116 16.0761 56.5756 17.3241 56.5756 18.9561C56.5756 20.5881 56.9116 21.8481 57.5836 22.7361C58.2556 23.6001 59.1556 24.0321 60.2836 24.0321C61.8676 24.0321 62.9356 23.2641 63.4876 21.7281H70.0396C69.5116 24.0801 68.3956 25.9281 66.6916 27.2721C64.9876 28.6161 62.8876 29.2881 60.3916 29.2881C58.4236 29.2881 56.6716 28.8681 55.1356 28.0281C53.6236 27.1881 52.4356 25.9881 51.5716 24.4281C50.7316 22.8681 50.3116 21.0441 50.3116 18.9561Z" fill="white"/>
<path d="M80.8565 29.2881C78.8885 29.2881 77.1125 28.8681 75.5285 28.0281C73.9685 27.1881 72.7325 25.9881 71.8205 24.4281C70.9325 22.8681 70.4885 21.0441 70.4885 18.9561C70.4885 16.8921 70.9445 15.0801 71.8565 13.5201C72.7685 11.9361 74.0165 10.7241 75.6005 9.88406C77.1845 9.04406 78.9605 8.62406 80.9285 8.62406C82.8965 8.62406 84.6725 9.04406 86.2565 9.88406C87.8405 10.7241 89.0885 11.9361 90.0005 13.5201C90.9125 15.0801 91.3685 16.8921 91.3685 18.9561C91.3685 21.0201 90.9005 22.8441 89.9645 24.4281C89.0525 25.9881 87.7925 27.1881 86.1845 28.0281C84.6005 28.8681 82.8245 29.2881 80.8565 29.2881ZM80.8565 23.9601C82.0325 23.9601 83.0285 23.5281 83.8445 22.6641C84.6845 21.8001 85.1045 20.5641 85.1045 18.9561C85.1045 17.3481 84.6965 16.1121 83.8805 15.2481C83.0885 14.3841 82.1045 13.9521 80.9285 13.9521C79.7285 13.9521 78.7325 14.3841 77.9405 15.2481C77.1485 16.0881 76.7525 17.3241 76.7525 18.9561C76.7525 20.5641 77.1365 21.8001 77.9045 22.6641C78.6965 23.5281 79.6805 23.9601 80.8565 23.9601Z" fill="white"/>
<path d="M102.05 23.2401L106.406 8.91206H112.958L105.83 29.0001H98.2344L91.1064 8.91206H97.6944L102.05 23.2401Z" fill="white"/>
<path d="M132.866 18.6321C132.866 19.2081 132.83 19.8081 132.758 20.4321H118.826C118.922 21.6801 119.318 22.6401 120.014 23.3121C120.734 23.9601 121.61 24.2841 122.642 24.2841C124.178 24.2841 125.246 23.6361 125.846 22.3401H132.398C132.062 23.6601 131.45 24.8481 130.562 25.9041C129.698 26.9601 128.606 27.7881 127.286 28.3881C125.966 28.9881 124.49 29.2881 122.858 29.2881C120.89 29.2881 119.138 28.8681 117.602 28.0281C116.066 27.1881 114.866 25.9881 114.002 24.4281C113.138 22.8681 112.706 21.0441 112.706 18.9561C112.706 16.8681 113.126 15.0441 113.966 13.4841C114.83 11.9241 116.03 10.7241 117.566 9.88406C119.102 9.04406 120.866 8.62406 122.858 8.62406C124.802 8.62406 126.53 9.03206 128.042 9.84806C129.554 10.6641 130.73 11.8281 131.57 13.3401C132.434 14.8521 132.866 16.6161 132.866 18.6321ZM126.566 17.0121C126.566 15.9561 126.206 15.1161 125.486 14.4921C124.766 13.8681 123.866 13.5561 122.786 13.5561C121.754 13.5561 120.878 13.8561 120.158 14.4561C119.462 15.0561 119.03 15.9081 118.862 17.0121H126.566Z" fill="white"/>
<path d="M140.649 12.2601C141.369 11.1561 142.269 10.2921 143.349 9.66806C144.429 9.02006 145.629 8.69606 146.949 8.69606V15.2121H145.257C143.721 15.2121 142.569 15.5481 141.801 16.2201C141.033 16.8681 140.649 18.0201 140.649 19.6761V29.0001H134.493V8.91206H140.649V12.2601Z" fill="white"/>
<path d="M157.416 29.2881C155.448 29.2881 153.672 28.8681 152.088 28.0281C150.528 27.1881 149.292 25.9881 148.38 24.4281C147.492 22.8681 147.048 21.0441 147.048 18.9561C147.048 16.8921 147.504 15.0801 148.416 13.5201C149.328 11.9361 150.576 10.7241 152.16 9.88406C153.744 9.04406 155.52 8.62406 157.488 8.62406C159.456 8.62406 161.232 9.04406 162.816 9.88406C164.4 10.7241 165.648 11.9361 166.56 13.5201C167.472 15.0801 167.928 16.8921 167.928 18.9561C167.928 21.0201 167.46 22.8441 166.524 24.4281C165.612 25.9881 164.352 27.1881 162.744 28.0281C161.16 28.8681 159.384 29.2881 157.416 29.2881ZM157.416 23.9601C158.592 23.9601 159.588 23.5281 160.404 22.6641C161.244 21.8001 161.664 20.5641 161.664 18.9561C161.664 17.3481 161.256 16.1121 160.44 15.2481C159.648 14.3841 158.664 13.9521 157.488 13.9521C156.288 13.9521 155.292 14.3841 154.5 15.2481C153.708 16.0881 153.312 17.3241 153.312 18.9561C153.312 20.5641 153.696 21.8001 154.464 22.6641C155.256 23.5281 156.24 23.9601 157.416 23.9601Z" fill="white"/>
</svg>
